<?xml version="1.0" encoding="UTF-8"?>
<svg xmlns="http://www.w3.org/2000/svg"
     xmlns:xlink="http://www.w3.org/1999/xlink"
     version="1.2"
     width="200mm" height="200mm" viewBox="0 0 200 200"
     stroke="none"
     fill="#000000"
     stroke-width="0.3"
     font-size="3.88"
>
<g stroke="#000000" fill="#000000" fill-opacity="0.000" id="img-61ffaa74-1">
  <use xlink:href="#img-61ffaa74-2" x="100" y="86.6"/>
  <use xlink:href="#img-61ffaa74-2" x="110" y="103.92"/>
  <use xlink:href="#img-61ffaa74-2" x="90" y="103.92"/>
  <use xlink:href="#img-61ffaa74-2" x="80" y="86.6"/>
  <use xlink:href="#img-61ffaa74-2" x="90" y="69.28"/>
  <use xlink:href="#img-61ffaa74-2" x="110" y="69.28"/>
  <use xlink:href="#img-61ffaa74-2" x="120" y="86.6"/>
  <use xlink:href="#img-61ffaa74-2" x="70" y="69.28"/>
  <use xlink:href="#img-61ffaa74-2" x="80" y="51.96"/>
  <use xlink:href="#img-61ffaa74-2" x="100" y="51.96"/>
  <use xlink:href="#img-61ffaa74-2" x="120" y="51.96"/>
  <use xlink:href="#img-61ffaa74-2" x="130" y="69.28"/>
  <use xlink:href="#img-61ffaa74-2" x="130" y="103.92"/>
  <use xlink:href="#img-61ffaa74-2" x="140" y="86.6"/>
  <use xlink:href="#img-61ffaa74-2" x="120" y="121.24"/>
  <use xlink:href="#img-61ffaa74-2" x="100" y="121.24"/>
  <use xlink:href="#img-61ffaa74-2" x="80" y="121.24"/>
  <use xlink:href="#img-61ffaa74-2" x="70" y="103.92"/>
  <use xlink:href="#img-61ffaa74-2" x="60" y="86.6"/>
  <use xlink:href="#img-61ffaa74-2" x="140" y="121.24"/>
  <use xlink:href="#img-61ffaa74-2" x="120" y="121.24"/>
  <use xlink:href="#img-61ffaa74-2" x="110" y="103.92"/>
  <use xlink:href="#img-61ffaa74-2" x="120" y="86.6"/>
  <use xlink:href="#img-61ffaa74-2" x="150" y="103.92"/>
  <use xlink:href="#img-61ffaa74-2" x="130" y="138.56"/>
  <use xlink:href="#img-61ffaa74-2" x="110" y="138.56"/>
  <use xlink:href="#img-61ffaa74-2" x="90" y="138.56"/>
  <use xlink:href="#img-61ffaa74-2" x="70" y="138.56"/>
  <use xlink:href="#img-61ffaa74-2" x="60" y="121.24"/>
  <use xlink:href="#img-61ffaa74-2" x="80" y="121.24"/>
  <use xlink:href="#img-61ffaa74-2" x="50" y="103.92"/>
  <use xlink:href="#img-61ffaa74-2" x="80" y="86.6"/>
  <use xlink:href="#img-61ffaa74-2" x="90" y="103.92"/>
  <use xlink:href="#img-61ffaa74-2" x="50" y="69.28"/>
  <use xlink:href="#img-61ffaa74-2" x="60" y="51.96"/>
  <use xlink:href="#img-61ffaa74-2" x="80" y="51.96"/>
  <use xlink:href="#img-61ffaa74-2" x="90" y="69.28"/>
  <use xlink:href="#img-61ffaa74-2" x="40" y="86.6"/>
  <use xlink:href="#img-61ffaa74-2" x="70" y="34.64"/>
  <use xlink:href="#img-61ffaa74-2" x="90" y="34.64"/>
  <use xlink:href="#img-61ffaa74-2" x="110" y="34.64"/>
  <use xlink:href="#img-61ffaa74-2" x="130" y="34.64"/>
  <use xlink:href="#img-61ffaa74-2" x="140" y="51.96"/>
  <use xlink:href="#img-61ffaa74-2" x="110" y="69.28"/>
  <use xlink:href="#img-61ffaa74-2" x="120" y="51.96"/>
  <use xlink:href="#img-61ffaa74-2" x="150" y="69.28"/>
  <use xlink:href="#img-61ffaa74-2" x="160" y="86.6"/>
  <use xlink:href="#img-61ffaa74-2" x="40" y="51.96"/>
  <use xlink:href="#img-61ffaa74-2" x="50" y="34.64"/>
  <use xlink:href="#img-61ffaa74-2" x="90" y="34.64"/>
  <use xlink:href="#img-61ffaa74-2" x="100" y="51.96"/>
  <use xlink:href="#img-61ffaa74-2" x="100" y="86.6"/>
  <use xlink:href="#img-61ffaa74-2" x="110" y="69.28"/>
  <use xlink:href="#img-61ffaa74-2" x="40" y="86.6"/>
  <use xlink:href="#img-61ffaa74-2" x="30" y="69.28"/>
  <use xlink:href="#img-61ffaa74-2" x="40" y="51.96"/>
  <use xlink:href="#img-61ffaa74-2" x="70" y="69.28"/>
  <use xlink:href="#img-61ffaa74-2" x="80" y="51.96"/>
  <use xlink:href="#img-61ffaa74-2" x="60" y="51.96"/>
  <use xlink:href="#img-61ffaa74-2" x="60" y="17.32"/>
  <use xlink:href="#img-61ffaa74-2" x="80" y="17.32"/>
  <use xlink:href="#img-61ffaa74-2" x="100" y="51.96"/>
  <use xlink:href="#img-61ffaa74-2" x="80" y="51.96"/>
  <use xlink:href="#img-61ffaa74-2" x="80" y="17.32"/>
  <use xlink:href="#img-61ffaa74-2" x="100" y="17.32"/>
  <use xlink:href="#img-61ffaa74-2" x="120" y="51.96"/>
  <use xlink:href="#img-61ffaa74-2" x="120" y="17.32"/>
  <use xlink:href="#img-61ffaa74-2" x="140" y="51.96"/>
  <use xlink:href="#img-61ffaa74-2" x="120" y="51.96"/>
  <use xlink:href="#img-61ffaa74-2" x="110" y="34.64"/>
  <use xlink:href="#img-61ffaa74-2" x="120" y="17.32"/>
  <use xlink:href="#img-61ffaa74-2" x="140" y="17.32"/>
  <use xlink:href="#img-61ffaa74-2" x="150" y="34.64"/>
  <use xlink:href="#img-61ffaa74-2" x="160" y="51.96"/>
  <use xlink:href="#img-61ffaa74-2" x="100" y="51.96"/>
  <use xlink:href="#img-61ffaa74-2" x="160" y="86.6"/>
  <use xlink:href="#img-61ffaa74-2" x="130" y="69.28"/>
  <use xlink:href="#img-61ffaa74-2" x="160" y="51.96"/>
  <use xlink:href="#img-61ffaa74-2" x="170" y="69.28"/>
  <use xlink:href="#img-61ffaa74-2" x="100" y="86.6"/>
  <use xlink:href="#img-61ffaa74-2" x="90" y="69.28"/>
  <use xlink:href="#img-61ffaa74-2" x="160" y="121.24"/>
  <use xlink:href="#img-61ffaa74-2" x="130" y="103.92"/>
  <use xlink:href="#img-61ffaa74-2" x="170" y="103.92"/>
  <use xlink:href="#img-61ffaa74-2" x="150" y="138.56"/>
  <use xlink:href="#img-61ffaa74-2" x="160" y="121.24"/>
  <use xlink:href="#img-61ffaa74-2" x="110" y="138.56"/>
  <use xlink:href="#img-61ffaa74-2" x="100" y="121.24"/>
  <use xlink:href="#img-61ffaa74-2" x="90" y="103.92"/>
  <use xlink:href="#img-61ffaa74-2" x="170" y="103.92"/>
  <use xlink:href="#img-61ffaa74-2" x="150" y="103.92"/>
  <use xlink:href="#img-61ffaa74-2" x="140" y="86.6"/>
  <use xlink:href="#img-61ffaa74-2" x="150" y="69.28"/>
  <use xlink:href="#img-61ffaa74-2" x="170" y="69.28"/>
  <use xlink:href="#img-61ffaa74-2" x="180" y="86.6"/>
  <use xlink:href="#img-61ffaa74-2" x="140" y="155.88"/>
  <use xlink:href="#img-61ffaa74-2" x="120" y="155.88"/>
  <use xlink:href="#img-61ffaa74-2" x="120" y="121.24"/>
  <use xlink:href="#img-61ffaa74-2" x="140" y="121.24"/>
  <use xlink:href="#img-61ffaa74-2" x="120" y="155.88"/>
  <use xlink:href="#img-61ffaa74-2" x="100" y="155.88"/>
  <use xlink:href="#img-61ffaa74-2" x="100" y="121.24"/>
  <use xlink:href="#img-61ffaa74-2" x="120" y="121.24"/>
  <use xlink:href="#img-61ffaa74-2" x="80" y="155.88"/>
  <use xlink:href="#img-61ffaa74-2" x="80" y="121.24"/>
  <use xlink:href="#img-61ffaa74-2" x="80" y="155.88"/>
  <use xlink:href="#img-61ffaa74-2" x="60" y="155.88"/>
  <use xlink:href="#img-61ffaa74-2" x="50" y="138.56"/>
  <use xlink:href="#img-61ffaa74-2" x="60" y="121.24"/>
  <use xlink:href="#img-61ffaa74-2" x="80" y="121.24"/>
  <use xlink:href="#img-61ffaa74-2" x="90" y="138.56"/>
  <use xlink:href="#img-61ffaa74-2" x="40" y="121.24"/>
  <use xlink:href="#img-61ffaa74-2" x="100" y="121.24"/>
  <use xlink:href="#img-61ffaa74-2" x="110" y="103.92"/>
  <use xlink:href="#img-61ffaa74-2" x="40" y="121.24"/>
  <use xlink:href="#img-61ffaa74-2" x="30" y="103.92"/>
  <use xlink:href="#img-61ffaa74-2" x="70" y="103.92"/>
  <use xlink:href="#img-61ffaa74-2" x="50" y="103.92"/>
  <use xlink:href="#img-61ffaa74-2" x="30" y="103.92"/>
  <use xlink:href="#img-61ffaa74-2" x="20" y="86.6"/>
  <use xlink:href="#img-61ffaa74-2" x="30" y="69.28"/>
  <use xlink:href="#img-61ffaa74-2" x="50" y="69.28"/>
  <use xlink:href="#img-61ffaa74-2" x="60" y="86.6"/>
  <use xlink:href="#img-61ffaa74-2" x="170" y="138.56"/>
  <use xlink:href="#img-61ffaa74-2" x="150" y="138.56"/>
  <use xlink:href="#img-61ffaa74-2" x="140" y="121.24"/>
  <use xlink:href="#img-61ffaa74-2" x="180" y="121.24"/>
  <use xlink:href="#img-61ffaa74-2" x="160" y="155.88"/>
  <use xlink:href="#img-61ffaa74-2" x="130" y="138.56"/>
  <use xlink:href="#img-61ffaa74-2" x="160" y="121.24"/>
  <use xlink:href="#img-61ffaa74-2" x="170" y="138.56"/>
  <use xlink:href="#img-61ffaa74-2" x="100" y="155.88"/>
  <use xlink:href="#img-61ffaa74-2" x="90" y="138.56"/>
  <use xlink:href="#img-61ffaa74-2" x="100" y="121.24"/>
  <use xlink:href="#img-61ffaa74-2" x="80" y="121.24"/>
  <use xlink:href="#img-61ffaa74-2" x="80" y="86.6"/>
  <use xlink:href="#img-61ffaa74-2" x="140" y="86.6"/>
  <use xlink:href="#img-61ffaa74-2" x="180" y="121.24"/>
  <use xlink:href="#img-61ffaa74-2" x="150" y="103.92"/>
  <use xlink:href="#img-61ffaa74-2" x="180" y="86.6"/>
  <use xlink:href="#img-61ffaa74-2" x="190" y="103.92"/>
  <use xlink:href="#img-61ffaa74-2" x="140" y="121.24"/>
  <use xlink:href="#img-61ffaa74-2" x="120" y="121.24"/>
  <use xlink:href="#img-61ffaa74-2" x="120" y="86.6"/>
  <use xlink:href="#img-61ffaa74-2" x="110" y="103.92"/>
  <use xlink:href="#img-61ffaa74-2" x="130" y="103.92"/>
  <use xlink:href="#img-61ffaa74-2" x="150" y="103.92"/>
  <use xlink:href="#img-61ffaa74-2" x="160" y="121.24"/>
  <use xlink:href="#img-61ffaa74-2" x="150" y="173.21"/>
  <use xlink:href="#img-61ffaa74-2" x="130" y="173.21"/>
  <use xlink:href="#img-61ffaa74-2" x="160" y="155.88"/>
  <use xlink:href="#img-61ffaa74-2" x="110" y="173.21"/>
  <use xlink:href="#img-61ffaa74-2" x="90" y="103.92"/>
  <use xlink:href="#img-61ffaa74-2" x="110" y="103.92"/>
  <use xlink:href="#img-61ffaa74-2" x="110" y="173.21"/>
  <use xlink:href="#img-61ffaa74-2" x="90" y="173.21"/>
  <use xlink:href="#img-61ffaa74-2" x="70" y="103.92"/>
  <use xlink:href="#img-61ffaa74-2" x="70" y="173.21"/>
  <use xlink:href="#img-61ffaa74-2" x="40" y="121.24"/>
  <use xlink:href="#img-61ffaa74-2" x="50" y="103.92"/>
  <use xlink:href="#img-61ffaa74-2" x="90" y="103.92"/>
  <use xlink:href="#img-61ffaa74-2" x="100" y="121.24"/>
  <use xlink:href="#img-61ffaa74-2" x="100" y="155.88"/>
  <use xlink:href="#img-61ffaa74-2" x="110" y="138.56"/>
  <use xlink:href="#img-61ffaa74-2" x="90" y="173.21"/>
  <use xlink:href="#img-61ffaa74-2" x="50" y="173.21"/>
  <use xlink:href="#img-61ffaa74-2" x="40" y="155.88"/>
  <use xlink:href="#img-61ffaa74-2" x="40" y="155.88"/>
  <use xlink:href="#img-61ffaa74-2" x="30" y="138.56"/>
  <use xlink:href="#img-61ffaa74-2" x="40" y="121.24"/>
  <use xlink:href="#img-61ffaa74-2" x="70" y="138.56"/>
  <use xlink:href="#img-61ffaa74-2" x="50" y="138.56"/>
  <use xlink:href="#img-61ffaa74-2" x="30" y="138.56"/>
  <use xlink:href="#img-61ffaa74-2" x="20" y="121.24"/>
  <use xlink:href="#img-61ffaa74-2" x="60" y="121.24"/>
  <use xlink:href="#img-61ffaa74-2" x="60" y="86.6"/>
  <use xlink:href="#img-61ffaa74-2" x="60" y="121.24"/>
  <use xlink:href="#img-61ffaa74-2" x="20" y="121.24"/>
  <use xlink:href="#img-61ffaa74-2" x="10" y="103.92"/>
  <use xlink:href="#img-61ffaa74-2" x="20" y="86.6"/>
  <use xlink:href="#img-61ffaa74-2" x="50" y="103.92"/>
  <use xlink:href="#img-61ffaa74-2" x="20" y="51.96"/>
  <use xlink:href="#img-61ffaa74-2" x="30" y="34.64"/>
  <use xlink:href="#img-61ffaa74-2" x="60" y="51.96"/>
  <use xlink:href="#img-61ffaa74-2" x="80" y="51.96"/>
  <use xlink:href="#img-61ffaa74-2" x="10" y="69.28"/>
  <use xlink:href="#img-61ffaa74-2" x="20" y="51.96"/>
  <use xlink:href="#img-61ffaa74-2" x="50" y="69.28"/>
  <use xlink:href="#img-61ffaa74-2" x="40" y="51.96"/>
  <use xlink:href="#img-61ffaa74-2" x="40" y="17.32"/>
  <use xlink:href="#img-61ffaa74-2" x="70" y="34.64"/>
  <use xlink:href="#img-61ffaa74-2" x="30" y="34.64"/>
  <use xlink:href="#img-61ffaa74-2" x="50" y="34.64"/>
  <use xlink:href="#img-61ffaa74-2" x="60" y="51.96"/>
  <use xlink:href="#img-61ffaa74-2" x="100" y="51.96"/>
  <use xlink:href="#img-61ffaa74-2" x="100" y="17.32"/>
  <use xlink:href="#img-61ffaa74-2" x="110" y="34.64"/>
  <use xlink:href="#img-61ffaa74-2" x="120" y="51.96"/>
  <use xlink:href="#img-61ffaa74-2" x="10" y="69.28"/>
  <use xlink:href="#img-61ffaa74-2" x="60" y="86.6"/>
  <use xlink:href="#img-61ffaa74-2" x="30" y="69.28"/>
  <use xlink:href="#img-61ffaa74-2" x="60" y="51.96"/>
  <use xlink:href="#img-61ffaa74-2" x="70" y="69.28"/>
  <use xlink:href="#img-61ffaa74-2" x="80" y="86.6"/>
  <use xlink:href="#img-61ffaa74-2" x="60" y="121.24"/>
  <use xlink:href="#img-61ffaa74-2" x="30" y="103.92"/>
  <use xlink:href="#img-61ffaa74-2" x="70" y="103.92"/>
  <use xlink:href="#img-61ffaa74-2" x="10" y="103.92"/>
  <use xlink:href="#img-61ffaa74-2" x="10" y="103.92"/>
  <use xlink:href="#img-61ffaa74-2" x="0" y="86.6"/>
  <use xlink:href="#img-61ffaa74-2" x="10" y="69.28"/>
  <use xlink:href="#img-61ffaa74-2" x="40" y="17.32"/>
  <use xlink:href="#img-61ffaa74-2" x="50" y="0"/>
  <use xlink:href="#img-61ffaa74-2" x="70" y="0"/>
  <use xlink:href="#img-61ffaa74-2" x="90" y="0"/>
  <use xlink:href="#img-61ffaa74-2" x="90" y="69.28"/>
  <use xlink:href="#img-61ffaa74-2" x="70" y="69.28"/>
  <use xlink:href="#img-61ffaa74-2" x="50" y="69.28"/>
  <use xlink:href="#img-61ffaa74-2" x="40" y="51.96"/>
  <use xlink:href="#img-61ffaa74-2" x="90" y="0"/>
  <use xlink:href="#img-61ffaa74-2" x="110" y="0"/>
  <use xlink:href="#img-61ffaa74-2" x="110" y="69.28"/>
  <use xlink:href="#img-61ffaa74-2" x="90" y="69.28"/>
  <use xlink:href="#img-61ffaa74-2" x="130" y="0"/>
  <use xlink:href="#img-61ffaa74-2" x="130" y="69.28"/>
  <use xlink:href="#img-61ffaa74-2" x="100" y="17.32"/>
  <use xlink:href="#img-61ffaa74-2" x="110" y="0"/>
  <use xlink:href="#img-61ffaa74-2" x="150" y="0"/>
  <use xlink:href="#img-61ffaa74-2" x="160" y="17.32"/>
  <use xlink:href="#img-61ffaa74-2" x="160" y="51.96"/>
  <use xlink:href="#img-61ffaa74-2" x="130" y="34.64"/>
  <use xlink:href="#img-61ffaa74-2" x="160" y="17.32"/>
  <use xlink:href="#img-61ffaa74-2" x="170" y="34.64"/>
  <use xlink:href="#img-61ffaa74-2" x="150" y="69.28"/>
  <use xlink:href="#img-61ffaa74-2" x="160" y="51.96"/>
  <use xlink:href="#img-61ffaa74-2" x="110" y="69.28"/>
  <use xlink:href="#img-61ffaa74-2" x="100" y="51.96"/>
  <use xlink:href="#img-61ffaa74-2" x="90" y="34.64"/>
  <use xlink:href="#img-61ffaa74-2" x="140" y="51.96"/>
  <use xlink:href="#img-61ffaa74-2" x="150" y="34.64"/>
  <use xlink:href="#img-61ffaa74-2" x="170" y="34.64"/>
  <use xlink:href="#img-61ffaa74-2" x="180" y="51.96"/>
  <use xlink:href="#img-61ffaa74-2" x="140" y="51.96"/>
  <use xlink:href="#img-61ffaa74-2" x="150" y="69.28"/>
  <use xlink:href="#img-61ffaa74-2" x="180" y="51.96"/>
  <use xlink:href="#img-61ffaa74-2" x="190" y="69.28"/>
  <use xlink:href="#img-61ffaa74-2" x="140" y="86.6"/>
  <use xlink:href="#img-61ffaa74-2" x="130" y="69.28"/>
  <use xlink:href="#img-61ffaa74-2" x="140" y="51.96"/>
  <use xlink:href="#img-61ffaa74-2" x="170" y="69.28"/>
  <use xlink:href="#img-61ffaa74-2" x="190" y="69.28"/>
  <use xlink:href="#img-61ffaa74-2" x="190" y="103.92"/>
  <use xlink:href="#img-61ffaa74-2" x="190" y="69.28"/>
  <use xlink:href="#img-61ffaa74-2" x="200" y="86.6"/>
  <use xlink:href="#img-61ffaa74-2" x="190" y="103.92"/>
  <use xlink:href="#img-61ffaa74-2" x="140" y="121.24"/>
  <use xlink:href="#img-61ffaa74-2" x="130" y="103.92"/>
  <use xlink:href="#img-61ffaa74-2" x="170" y="103.92"/>
  <use xlink:href="#img-61ffaa74-2" x="120" y="86.6"/>
</g>
<defs>
  <g id="img-61ffaa74-2">
    <circle cx="0" cy="0" r="20"/>
  </g>
</defs>
</svg>
